<svg width="283" height="86" viewBox="0 0 283 86" fill="none" xmlns="http://www.w3.org/2000/svg">
<path d="M75.8365 23.1502H79.1405V30.3882H83.5645V32.9502H75.8365V23.1502ZM84.4771 23.1502H87.7811V32.9502H84.4771V23.1502ZM97.2117 27.8262C97.7903 28.0409 98.2383 28.3535 98.5557 28.7642C98.873 29.1749 99.0317 29.6695 99.0317 30.2482C99.0317 31.1069 98.677 31.7742 97.9677 32.2502C97.2583 32.7169 96.2317 32.9502 94.8877 32.9502H89.3717V23.1502H94.6077C95.9143 23.1502 96.899 23.3835 97.5617 23.8502C98.2337 24.3169 98.5697 24.9375 98.5697 25.7122C98.5697 26.1695 98.453 26.5802 98.2197 26.9442C97.9957 27.3082 97.6597 27.6022 97.2117 27.8262ZM92.6197 25.4602V26.9162H94.1597C94.8783 26.9162 95.2377 26.6735 95.2377 26.1882C95.2377 25.7029 94.8783 25.4602 94.1597 25.4602H92.6197ZM94.6077 30.6402C95.3357 30.6402 95.6997 30.3835 95.6997 29.8702C95.6997 29.3569 95.3357 29.1002 94.6077 29.1002H92.6197V30.6402H94.6077ZM104.4 30.4862H103.504V32.9502H100.2V23.1502H104.918C105.823 23.1502 106.612 23.2995 107.284 23.5982C107.956 23.8969 108.474 24.3262 108.838 24.8862C109.202 25.4462 109.384 26.0995 109.384 26.8462C109.384 27.5462 109.225 28.1575 108.908 28.6802C108.59 29.2029 108.133 29.6182 107.536 29.9262L109.594 32.9502H106.066L104.4 30.4862ZM106.052 26.8462C106.052 26.4822 105.94 26.2022 105.716 26.0062C105.492 25.8009 105.156 25.6982 104.708 25.6982H103.504V27.9942H104.708C105.156 27.9942 105.492 27.8962 105.716 27.7002C105.94 27.4949 106.052 27.2102 106.052 26.8462ZM117.309 31.2422H113.585L112.927 32.9502H109.567L113.851 23.1502H117.099L121.383 32.9502H117.967L117.309 31.2422ZM116.399 28.8622L115.447 26.3982L114.495 28.8622H116.399ZM126.111 30.4862H125.215V32.9502H121.911V23.1502H126.629C127.534 23.1502 128.323 23.2995 128.995 23.5982C129.667 23.8969 130.185 24.3262 130.549 24.8862C130.913 25.4462 131.095 26.0995 131.095 26.8462C131.095 27.5462 130.936 28.1575 130.619 28.6802C130.301 29.2029 129.844 29.6182 129.247 29.9262L131.305 32.9502H127.777L126.111 30.4862ZM127.763 26.8462C127.763 26.4822 127.651 26.2022 127.427 26.0062C127.203 25.8009 126.867 25.6982 126.419 25.6982H125.215V27.9942H126.419C126.867 27.9942 127.203 27.8962 127.427 27.7002C127.651 27.4949 127.763 27.2102 127.763 26.8462ZM138.03 29.3942V32.9502H134.726V29.3522L131.03 23.1502H134.516L136.518 26.5382L138.534 23.1502H141.726L138.03 29.3942Z" fill="white"/>
<path d="M87.0172 59.8918H81.9472L80.8552 62.3228H79.8542L84.0142 53.2228H84.9632L89.1232 62.3228H88.1092L87.0172 59.8918ZM86.6662 59.1118L84.4822 54.2238L82.2982 59.1118H86.6662ZM96.6101 52.6768V62.3228H95.7261V60.9708C95.4488 61.4301 95.0804 61.7811 94.6211 62.0238C94.1704 62.2664 93.6591 62.3878 93.0871 62.3878C92.4458 62.3878 91.8651 62.2404 91.3451 61.9458C90.8251 61.6511 90.4178 61.2394 90.1231 60.7108C89.8284 60.1821 89.6811 59.5798 89.6811 58.9038C89.6811 58.2278 89.8284 57.6254 90.1231 57.0968C90.4178 56.5681 90.8251 56.1608 91.3451 55.8748C91.8651 55.5801 92.4458 55.4328 93.0871 55.4328C93.6418 55.4328 94.1401 55.5498 94.5821 55.7838C95.0328 56.0091 95.4011 56.3428 95.6871 56.7848V52.6768H96.6101ZM93.1651 61.5688C93.6418 61.5688 94.0708 61.4604 94.4521 61.2438C94.8421 61.0184 95.1454 60.7021 95.3621 60.2948C95.5874 59.8874 95.7001 59.4238 95.7001 58.9038C95.7001 58.3838 95.5874 57.9201 95.3621 57.5128C95.1454 57.1054 94.8421 56.7934 94.4521 56.5768C94.0708 56.3514 93.6418 56.2388 93.1651 56.2388C92.6798 56.2388 92.2421 56.3514 91.8521 56.5768C91.4708 56.7934 91.1674 57.1054 90.9421 57.5128C90.7254 57.9201 90.6171 58.3838 90.6171 58.9038C90.6171 59.4238 90.7254 59.8874 90.9421 60.2948C91.1674 60.7021 91.4708 61.0184 91.8521 61.2438C92.2421 61.4604 92.6798 61.5688 93.1651 61.5688ZM107.709 55.4328C108.567 55.4328 109.238 55.6798 109.724 56.1738C110.218 56.6678 110.465 57.3958 110.465 58.3578V62.3228H109.542V58.4488C109.542 57.7381 109.368 57.1964 109.022 56.8238C108.684 56.4511 108.203 56.2648 107.579 56.2648C106.868 56.2648 106.309 56.4858 105.902 56.9278C105.494 57.3611 105.291 57.9634 105.291 58.7348V62.3228H104.368V58.4488C104.368 57.7381 104.194 57.1964 103.848 56.8238C103.51 56.4511 103.024 56.2648 102.392 56.2648C101.69 56.2648 101.131 56.4858 100.715 56.9278C100.307 57.3611 100.104 57.9634 100.104 58.7348V62.3228H99.1806V55.4848H100.065V56.7328C100.307 56.3168 100.645 55.9961 101.079 55.7708C101.512 55.5454 102.01 55.4328 102.574 55.4328C103.146 55.4328 103.64 55.5541 104.056 55.7968C104.48 56.0394 104.797 56.3991 105.005 56.8758C105.256 56.4251 105.616 56.0741 106.084 55.8228C106.56 55.5628 107.102 55.4328 107.709 55.4328ZM112.968 55.4848H113.891V62.3228H112.968V55.4848ZM113.436 53.9898C113.245 53.9898 113.085 53.9248 112.955 53.7948C112.825 53.6648 112.76 53.5088 112.76 53.3268C112.76 53.1534 112.825 53.0018 112.955 52.8718C113.085 52.7418 113.245 52.6768 113.436 52.6768C113.626 52.6768 113.787 52.7418 113.917 52.8718C114.047 52.9931 114.112 53.1404 114.112 53.3138C114.112 53.5044 114.047 53.6648 113.917 53.7948C113.787 53.9248 113.626 53.9898 113.436 53.9898ZM119.943 55.4328C120.801 55.4328 121.481 55.6841 121.984 56.1868C122.495 56.6808 122.751 57.4044 122.751 58.3578V62.3228H121.828V58.4488C121.828 57.7381 121.65 57.1964 121.295 56.8238C120.94 56.4511 120.433 56.2648 119.774 56.2648C119.037 56.2648 118.452 56.4858 118.019 56.9278C117.594 57.3611 117.382 57.9634 117.382 58.7348V62.3228H116.459V55.4848H117.343V56.7458C117.594 56.3298 117.941 56.0091 118.383 55.7838C118.834 55.5498 119.354 55.4328 119.943 55.4328ZM132.26 53.2228C133.421 53.2228 134.331 53.5001 134.99 54.0548C135.649 54.6094 135.978 55.3721 135.978 56.3428C135.978 57.3134 135.649 58.0761 134.99 58.6308C134.331 59.1768 133.421 59.4498 132.26 59.4498H129.816V62.3228H128.854V53.2228H132.26ZM132.234 58.6048C133.135 58.6048 133.824 58.4098 134.301 58.0198C134.778 57.6211 135.016 57.0621 135.016 56.3428C135.016 55.6061 134.778 55.0428 134.301 54.6528C133.824 54.2541 133.135 54.0548 132.234 54.0548H129.816V58.6048H132.234ZM140.192 55.4328C141.084 55.4328 141.769 55.6581 142.246 56.1088C142.722 56.5508 142.961 57.2094 142.961 58.0848V62.3228H142.077V61.2568C141.869 61.6121 141.561 61.8894 141.154 62.0888C140.755 62.2881 140.278 62.3878 139.724 62.3878C138.961 62.3878 138.354 62.2058 137.904 61.8418C137.453 61.4778 137.228 60.9968 137.228 60.3988C137.228 59.8181 137.436 59.3501 137.852 58.9948C138.276 58.6394 138.948 58.4618 139.867 58.4618H142.038V58.0458C142.038 57.4564 141.873 57.0101 141.544 56.7068C141.214 56.3948 140.733 56.2388 140.101 56.2388C139.667 56.2388 139.251 56.3124 138.853 56.4598C138.454 56.5984 138.112 56.7934 137.826 57.0448L137.41 56.3558C137.756 56.0611 138.172 55.8358 138.658 55.6798C139.143 55.5151 139.654 55.4328 140.192 55.4328ZM139.867 61.6598C140.387 61.6598 140.833 61.5428 141.206 61.3088C141.578 61.0661 141.856 60.7194 142.038 60.2688V59.1508H139.893C138.723 59.1508 138.138 59.5581 138.138 60.3728C138.138 60.7714 138.289 61.0878 138.593 61.3218C138.896 61.5471 139.321 61.6598 139.867 61.6598ZM148.952 55.4328C149.81 55.4328 150.49 55.6841 150.993 56.1868C151.504 56.6808 151.76 57.4044 151.76 58.3578V62.3228H150.837V58.4488C150.837 57.7381 150.659 57.1964 150.304 56.8238C149.948 56.4511 149.441 56.2648 148.783 56.2648C148.046 56.2648 147.461 56.4858 147.028 56.9278C146.603 57.3611 146.391 57.9634 146.391 58.7348V62.3228H145.468V55.4848H146.352V56.7458C146.603 56.3298 146.95 56.0091 147.392 55.7838C147.842 55.5498 148.362 55.4328 148.952 55.4328ZM160.245 59.1898H154.525C154.577 59.9004 154.85 60.4768 155.344 60.9188C155.838 61.3521 156.462 61.5688 157.216 61.5688C157.641 61.5688 158.031 61.4951 158.386 61.3478C158.741 61.1918 159.049 60.9664 159.309 60.6718L159.829 61.2698C159.526 61.6338 159.144 61.9111 158.685 62.1018C158.234 62.2924 157.736 62.3878 157.19 62.3878C156.488 62.3878 155.864 62.2404 155.318 61.9458C154.781 61.6424 154.36 61.2264 154.057 60.6978C153.754 60.1691 153.602 59.5711 153.602 58.9038C153.602 58.2364 153.745 57.6384 154.031 57.1098C154.326 56.5811 154.724 56.1694 155.227 55.8748C155.738 55.5801 156.31 55.4328 156.943 55.4328C157.576 55.4328 158.143 55.5801 158.646 55.8748C159.149 56.1694 159.543 56.5811 159.829 57.1098C160.115 57.6298 160.258 58.2278 160.258 58.9038L160.245 59.1898ZM156.943 56.2258C156.284 56.2258 155.73 56.4381 155.279 56.8628C154.837 57.2788 154.586 57.8248 154.525 58.5008H159.374C159.313 57.8248 159.058 57.2788 158.607 56.8628C158.165 56.4381 157.61 56.2258 156.943 56.2258ZM162.137 52.6768H163.06V62.3228H162.137V52.6768Z" fill="white"/>
<line x1="76.6351" y1="43.7729" x2="279.399" y2="43.7729" stroke="white" stroke-opacity="0.59"/>
<g clip-path="url(#clip0_215_55)">
<path d="M62.272 31.1353C62.0008 28.5501 61.9626 24.0973 63.8559 22.6022C63.8897 22.5748 63.9149 22.5352 63.9446 22.5012C65.4925 21.8733 66.5637 20.9921 65.7228 19.8063L42.8889 11.0806L5.91562 17.6C5.91562 17.6 1.68171 18.3675 2.05993 26.71C2.26526 31.2505 3.38812 33.4804 4.3701 34.5779L1.33611 35.7375C0.494007 36.9233 1.56504 37.8047 3.11316 38.4316C3.14258 38.4666 3.16739 38.506 3.20181 38.5334C5.09393 40.0298 5.05751 44.482 4.78535 47.0678C-2.01208 49.5157 0.427968 50.3134 0.427968 50.3134L1.91905 50.771C0.87023 51.973 -0.171386 54.2524 0.0237292 58.5754C0.402153 66.9164 3.87981 67.492 3.87981 67.492L28.0749 77.466L64.5946 66.2474C64.5946 66.2474 67.0354 65.4484 60.2362 63.0002C59.9628 60.4185 59.9248 55.9668 61.8213 54.4666C61.8561 54.44 61.8815 54.3996 61.9098 54.3661C63.4579 53.7382 64.5281 52.8578 63.687 51.672L62.0997 51.0641C63.1583 50.2545 64.7484 48.1385 64.9976 42.6422C65.1695 38.8616 64.3918 36.6474 63.4917 35.3438L66.6292 34.3809C66.6294 34.3824 69.0702 33.5835 62.272 31.1353ZM31.7255 31.0284L37.8667 29.4277L58.6206 24.0187L61.7126 23.2121C60.7247 25.5054 60.7661 28.644 60.9296 30.6612C60.9654 31.1175 61.0066 31.5343 61.0466 31.851L57.6623 32.9183L31.4673 41.1828L31.7255 31.0284ZM5.34528 39.1458L8.43691 39.9524L28.3681 45.1488L30.1093 45.601L35.331 46.9622L35.5886 57.1168L8.66584 48.6218L6.01167 47.7853C6.0507 47.468 6.09192 47.0518 6.12934 46.5942C6.29184 44.5785 6.33406 41.4392 5.34528 39.1458ZM4.14417 26.3085C4.10675 24.0895 4.41853 22.4847 5.0487 21.669C5.44974 21.1482 5.92302 21.0398 6.24761 21.0398C6.41911 21.0398 6.54259 21.07 6.55099 21.07L22.4818 27.6569L30.4299 30.9434L30.1692 41.1689L7.87157 33.2406L6.69488 32.8226C6.65165 32.8071 6.59302 32.7964 6.54779 32.7939C6.45594 32.7855 4.25143 32.5282 4.14417 26.3085ZM28.1326 73.0358L4.65887 64.6893C4.61545 64.6733 4.55741 64.6626 4.51219 64.6598C4.41873 64.652 2.21323 64.3949 2.10656 58.1767C2.06854 55.9549 2.38193 54.3516 3.0109 53.5352C3.41294 53.0144 3.88642 52.906 4.21041 52.906C4.38231 52.906 4.50538 52.9352 4.51439 52.9352C4.51439 52.9352 4.51539 52.9352 4.51439 52.9352L28.3917 62.8101L28.1326 73.0358ZM58.8918 62.5266C58.9288 62.9845 58.97 63.4005 59.01 63.7177L29.4301 73.0503L29.6887 62.8956L36.0126 61.2467L36.9466 61.5332L40.4471 60.0904L56.5828 55.8851L59.676 55.078C58.6871 57.3711 58.7281 60.5109 58.8918 62.5266ZM60.5211 48.7261C60.4673 48.7276 60.4135 48.7368 60.3628 48.7571L58.1319 49.5492L36.8898 57.1034L36.63 46.8779L43.5993 43.995L60.4747 37.0151C60.4769 37.0139 61.3624 36.7644 62.0124 37.6027C62.6416 38.4184 62.9538 40.0232 62.917 42.2422C62.8069 48.4599 60.6014 48.7182 60.5211 48.7261Z" fill="white"/>
</g>
<defs>
<clipPath id="clip0_215_55">
<rect width="67.0557" height="85.0439" fill="white" transform="translate(0 0.956055)"/>
</clipPath>
</defs>
</svg>

